<?xml version="1.0" encoding="UTF-8" standalone="no"?>
<svg
   xmlns:dc="http://purl.org/dc/elements/1.1/"
   xmlns:cc="http://creativecommons.org/ns#"
   xmlns:rdf="http://www.w3.org/1999/02/22-rdf-syntax-ns#"
   xmlns:svg="http://www.w3.org/2000/svg"
   xmlns="http://www.w3.org/2000/svg"
   xmlns:sodipodi="http://sodipodi.sourceforge.net/DTD/sodipodi-0.dtd"
   xmlns:inkscape="http://www.inkscape.org/namespaces/inkscape"
   version="1.1"
   width="5256.8999"
   height="7774.6001"
   viewBox="-25414 -27563 52569 77746"
   id="nevada"
   inkscape:version="0.92.5 (2060ec1f9f, 2020-04-08)"
   sodipodi:docname="nevada.svg">
  <metadata
     id="metadata34">
    <rdf:RDF>
      <cc:Work
         rdf:about="">
        <dc:format>image/svg+xml</dc:format>
        <dc:type
           rdf:resource="http://purl.org/dc/dcmitype/StillImage" />
        <dc:title />
      </cc:Work>
    </rdf:RDF>
  </metadata>
  <defs
     id="defs32" />
  <sodipodi:namedview
     pagecolor="#ffffff"
     bordercolor="#666666"
     borderopacity="1"
     objecttolerance="10"
     gridtolerance="10"
     guidetolerance="10"
     inkscape:pageopacity="0"
     inkscape:pageshadow="2"
     inkscape:window-width="1920"
     inkscape:window-height="1011"
     id="namedview30"
     showgrid="false"
     fit-margin-top="0"
     fit-margin-left="0"
     fit-margin-right="0"
     fit-margin-bottom="0"
     inkscape:zoom="0.12785224"
     inkscape:cx="2493.6464"
     inkscape:cy="2051.8725"
     inkscape:window-x="0"
     inkscape:window-y="0"
     inkscape:window-maximized="1"
     inkscape:current-layer="svg2" />
  <clipPath
     id="state_clip_path">
    <g
       id="state_outline">
      <path
         id="Nevada"
         d="m 25078,-27563 8,221 v 17 l 4,150 7,178 11,312 19,495 11,312 6,151 24,656 17,474 6,166 7,187 17,468 6,162 18,495 6,166 4,135 1,32 4,130 5,105 4,51 v 26 l 5,135 1,37 5,166 5,161 3,100 4,77 2,84 2,52 2,129 1,32 8,140 1,32 6,166 5,162 3,114 2,67 3,94 2,42 3,114 v 32 l 4,145 1,27 6,161 6,162 6,186 5,131 6,162 6,171 6,161 5,161 7,177 5,141 3,118 3,48 2,129 2,38 5,161 6,166 1,103 5,74 1,87 3,54 4,108 3,58 3,128 2,44 6,156 7,171 6,166 4,142 3,117 3,49 v 103 l 3,69 6,161 7,161 2,77 7,230 5,162 45,1396 v 31 l 3,181 6,298 5,215 6,289 19,821 2,69 5,248 12,543 32,1393 60,2360 18,531 22,552 58,1516 30,851 53,1430 12,327 41,1116 34,1148 24,815 5,161 15,536 7,280 5,166 8,284 16,526 4,146 20,695 v 13 l 24,1080 8,357 17,737 4,166 v 74 l 1,12 22,475 15,327 30,629 7,150 10,206 v 15 l 16,479 10,307 2,70 17,498 14,403 27,830 5,135 6,197 127,3889 18,548 8,251 42,1303 1,24 19,1386 1,23 35,1261 v 17 l 19,697 5,166 13,498 7,237 1,17 14,395 10,245 7,171 15,409 17,483 9,241 187,5192 1,22 66,1721 9,207 7,166 1,34 37,1043 52,1458 27,744 9,275 89,2860 9,292 v 107 l -52,13 -66,56 -5,6 -59,76 -20,48 -6,14 -4,12 -41,116 -53,110 -35,81 -53,75 -26,71 -21,85 -21,40 -58,31 -55,24 -40,27 -23,47 -4,52 34,32 28,33 14,25 -5,41 -21,35 -41,50 -41,107 -47,129 -21,91 -1,80 v 76 l -21,45 -31,41 -18,19 -4,20 -13,36 -1,10 -31,20 -31,5 -56,-5 -44,4 -51,-7 -44,6 -18,3 -54,28 -36,31 -46,14 -74,34 -105,41 -97,25 -86,10 -63,-12 -48,-28 -112,-56 -82,-71 -16,-68 -9,-70 -25,-48 -40,-14 -58,-12 -41,-18 -30,-37 -46,-25 -37,-18 -45,7 -36,5 -46,-20 -26,-36 5,-44 32,-36 6,-7 35,-33 16,-51 -10,-50 -26,-45 -30,-36 -35,-49 -26,-47 -26,-35 -25,-25 -37,-14 -10,-3 -48,-23 -38,-26 -23,-40 -7,-12 -42,-62 -41,-32 -35,-30 -51,-51 -21,-51 -56,-55 -51,-25 h -77 l -58,-17 -72,-17 -70,10 -58,7 -59,49 -52,48 -7,5 -73,56 -5,5 -60,53 -46,-25 -41,-20 -41,-59 -35,-42 -40,-15 -36,-3 -45,28 -80,54 -98,61 -61,19 -57,8 -36,-28 -15,-35 v -35 l 16,-31 31,-25 20,-25 6,-20 -24,-43 -32,-18 -31,-10 -41,5 -51,11 -26,24 -26,15 h -36 l -36,-20 -41,-30 -63,-17 -45,12 -66,14 -56,13 -72,9 -93,28 -77,55 -44,34 -7,7 -47,42 -40,32 -40,12 -33,-2 -36,-10 -15,-30 -12,-28 -29,-28 h -36 l -21,15 -37,19 -29,32 -52,19 -28,21 -39,34 -26,35 -20,20 -26,31 -6,7 -20,23 -42,27 -7,4 -43,24 -7,4 -40,21 -20,2 -43,-4 -34,-9 -41,20 -20,16 -27,9 -46,10 -43,12 -106,8 -72,22 -56,23 -57,40 -55,62 -33,38 -18,76 13,44 38,44 44,38 27,39 18,47 24,51 17,34 10,41 -22,31 -20,19 -5,30 5,48 15,23 38,14 32,13 27,34 31,25 8,29 -18,41 -29,37 -39,49 -49,36 -13,23 -10,19 -5,42 10,58 7,40 -2,46 -32,68 -1,25 -2,25 20,53 22,60 45,79 38,33 13,55 2,48 -4,73 -3,22 -1,18 27,34 43,23 43,38 68,49 30,62 11,39 -6,55 v 56 l 19,38 22,42 21,24 20,24 21,22 61,64 66,53 53,51 6,10 17,25 46,40 41,11 26,15 10,15 -5,23 -21,12 -24,7 -16,5 -27,8 -56,35 -52,20 -35,16 -9,10 -5,7 -8,12 -15,25 -26,15 -20,5 -11,2 -25,3 -30,15 -9,21 -3,25 17,33 14,27 10,15 14,23 27,38 15,25 5,30 -5,10 -14,26 -22,24 -11,21 1,28 -8,26 -14,41 -13,14 -13,9 -8,9 -16,24 -17,24 v 26 l 20,40 21,20 15,15 20,31 26,65 3,58 4,22 4,28 -2,43 3,58 7,43 19,35 17,31 10,24 -4,16 -9,35 -13,30 -1,36 9,20 12,35 10,45 -6,31 -5,30 -15,76 -26,60 -5,15 -14,39 -8,46 3,50 7,45 23,49 39,43 10,9 33,29 48,33 26,20 23,28 7,27 v 30 l -4,16 -4,18 -7,22 -9,30 -7,25 -10,41 -9,36 -2,9 -10,61 15,90 17,35 18,35 37,27 38,39 22,34 20,37 5,25 6,32 29,34 36,20 26,17 25,23 20,50 5,16 8,24 -2,65 -11,57 -4,40 -19,26 -18,16 -12,10 -34,28 -7,4 -48,24 -25,17 -4,25 v 36 l 26,21 36,24 20,36 20,59 10,37 -6,30 -4,24 11,61 3,14 11,52 20,52 15,29 5,20 -5,25 -21,35 -16,24 -12,13 -10,11 -24,27 -26,31 -24,26 -6,9 -21,30 -9,41 -2,10 -5,110 6,22 3,13 12,35 13,41 3,10 19,60 19,59 26,99 30,64 19,36 73,129 5,7 77,131 258,500 7,21 65,183 8,23 36,111 50,91 5,13 26,72 2,9 20,71 7,31 11,49 20,52 -9,64 -7,57 -9,80 2,14 v 66 l 17,75 4,22 7,43 40,79 29,95 1,9 15,85 4,26 4,49 7,52 7,53 -4,38 9,42 11,54 14,46 6,44 1,16 3,45 2,31 -1,64 20,46 30,28 11,22 12,23 13,43 -3,52 18,69 15,65 -2,31 -1,15 -3,25 -4,36 1,10 2,50 2,30 -27,80 -9,46 -3,18 7,35 4,17 5,48 -6,33 -26,64 -5,11 -41,41 -56,19 -72,14 -92,10 -77,4 -56,13 -16,4 -44,10 -51,30 -49,30 -52,65 -25,41 4,35 25,50 21,14 34,22 58,26 31,14 22,9 10,4 18,8 25,8 36,28 11,9 22,23 43,33 37,40 19,43 12,58 -21,70 -10,18 -21,38 -41,24 -37,21 -9,7 -54,41 -43,48 -17,29 -26,71 -5,69 4,60 3,35 -1,32 -1,26 -1,23 9,42 5,20 17,61 -245,-230 -149,-140 -17,-16 -169,-161 -163,-152 -88,-81 -194,-175 -96,-100 -195,-181 -510,-481 -996,-931 -136,-125 -295,-274 -426,-398 -155,-145 -270,-248 -165,-155 -171,-161 -435,-408 -466,-430 -30,-31 -100,-93 -1793,-1670 -110,-104 -871,-807 -130,-124 -512,-471 -340,-320 -180,-171 -30,1 -341,-319 -1889,-1764 -208,-194 -311,-289 -371,-346 -514,-481 -122,-113 -377,-354 -226,-211 -376,-355 -26,-24 -527,-496 -474,-443 -109,-103 -722,-669 -1223,-1139 -126,-118 -308,-287 -137,-126 -185,-171 -549,-516 -24,-22 -162,-151 -267,-247 -748,-695 -474,-442 -27,-25 -316,-298 -95,-89 -290,-269 -362,-335 -126,-117 -24,-22 -211,-196 -1420,-1323 v -12 l -671,-630 -121,-109 -195,-186 -80,-72 -80,-73 -496,-465 -1378,-1288 -55,-52 -537,-497 -65,-62 -60,-57 -491,-460 -375,-347 -492,-460 -95,-88 -731,-683 -16,-1 -1020,-956 -619,-583 -291,-274 -214,-203 -250,-236 -657,-613 -902,-843 -604,-565 -322,-302 -284,-262 -373,-350 -286,-266 -388,-361 -544,-508 -952,-890 -491,-460 -105,-99 -349,-328 -245,-231 -452,-421 -298,-278 -71,-66 -332,-309 -225,-212 -1046,-981 -104,-97 -175,-164 -374,-347 -178,-167 -782,-732 -1010,-950 -44,-40 -811,-759 -21,-20 -210,-196 -176,-164 -93,-87 -66,-62 -521,-486 -214,-198 -213,-204 -122,-118 -77,-72 -298,-280 -22,-14 -274,-255 -32,-30 -177,-168 -467,-441 -107,-101 -36,-35 -264,-246 -422,-393 13,-746 8,-487 12,-599 2,-117 18,-493 4,-275 8,-428 v -41 l 6,-145 10,-161 v -11 l 2,-151 8,-171 16,-322 8,-186 6,-156 7,-146 14,-332 1,-15 8,-146 14,-488 9,-327 4,-151 19,-503 5,-121 6,-171 6,-167 19,-502 5,-142 6,-161 7,-166 4,-150 1,-16 8,-135 1,-16 8,-140 1,-26 5,-135 1,-32 9,-139 v -22 l 8,-135 52,-1342 5,-118 6,-149 10,-173 6,-134 35,-714 7,-129 v -32 l 6,-109 5,-168 10,-241 2,-44 11,-344 16,-502 11,-322 6,-161 6,-156 1,-32 6,-135 23,-538 4,-147 19,-690 20,-513 2,-55 6,-222 19,-735 3,-116 5,-222 13,-392 2,-86 5,-222 20,-796 20,-725 11,-463 3,-96 10,-342 3,-136 27,-977 32,-978 45,-1321 19,-492 6,-153 15,-452 23,-468 32,-967 108,-3199 13,-379 7,-252 26,-1019 34,-1068 2,-72 11,-251 5,-223 13,-500 1151,29 h 7 l 286,11 106,5 164,8 27,1 225,12 1072,42 642,29 411,19 h 11 l 20,-4 54,4 13,1 1141,21 269,5 1488,30 805,14 1161,37 1087,28 h 34 l 1499,13 1349,12 328,3 327,2 308,2 650,4 169,1 154,1 332,2 164,1 471,2 h 297 l 195,2 768,3 808,5 185,2 276,1 h 6 l 475,3 h 57 l 323,1 153,1 286,1 37,1 446,-1 233,1 217,1 h 116 l 742,7 944,2 461,-5 1666,-13 h 4 l 98,1 2523,5 h 707 l 50,-2 1546,3 349,-3 142,-1 22,-1 1631,-16 155,-2 117,1 946,4 304,1 70,-1 509,-6 110,-2 1188,-14 926,-13 1336,-21 164,-2 130,-2 366,-5 138,-1 164,-2 287,-4 890,-9 74,-1 44,-4 759,-26 752,-22 439,-16 144,-6 327,-22 143,-8 153,-12 21,-2 149,-9 122,-7 26,-1 179,-2 169,-2 465,-3 h 856 l 142,3 164,1 149,1 h 10 l 492,-9 1131,-28 163,-5 333,-9 466,-19 h 29 l 298,-8 164,-4 553,-15 914,-24 64,-1 z"
         inkscape:connector-curvature="0" />
    </g>
  </clipPath>
  <path
     style="stroke-linejoin:round;stroke-opacity:1"
     inkscape:connector-curvature="0"
     d="m -25381,3855.0001 680,25 241,12 -5,-61 307,7 6,-161 77,1 1,-76 77,6 5,-106 144,6 6,-75 h 77 l 138,-4 118,-75 159,1 1,-156 164,7 6,-167 159,12 164,6 h 52 l 187,349 41,75 36,21 97,46 133,66 754,30 25,65 -21,121 -21,40 -26,101 -78,115 21,35 -1,56 21,55 91,101 -1,197 5,90 25,41 10,30 5,20 -5,61 25,35 31,51 -169,-7 -334,-7 -164,-6 -1118,-22 11,-151 -82,-6 6,-171 -646,-4 -236,-6 -297,-2 -385,-13 -61,-1 -468,-8 z"
     id="Carson_City" />
  <path
     style="stroke-linejoin:round;stroke-opacity:1"
     inkscape:connector-curvature="0"
     d="m -4035.9997,-5040.9999 -5,40 40,56 46,56 46,40 51,91 -10,35 15,46 36,-5 30,5 10,45 15,56 21,35 v 35 l 25,36 36,30 41,10 41,16 25,30 21,10 35,46 10,45 10,40 41,66 20,50 -10,41 10,45 20,20 -15,40 5,26 15,30 26,25 -6,25 -10,46 5,45 15,20 15,71 -16,110 10,30 -41,41 -5,25 15,20 -5,50 -21,15 -26,25 v 30 l 21,16 -26,55 -11,40 5,35 -15,5 -51,25 -21,10 -16,56 -31,30 10,65 v 96 l -31,95 20,25 10,31 -16,90 10,41 -15,45 -52,75 -10,55 -1,41 -5,55 10,35 10,41 -10,65 20,25 46,5 20,41 h 47 l 10,5 25,66 -31,80 -16,60 -25,25 -26,61 15,40 v 50 l -11,41 61,146 56,30 66,106 -31,51 -25,35 -11,80 -21,45 -36,40 5,46 -36,35 -21,20 5,35 87,90.99997 51,10 31,6 20,95 -72,126 -88,155 25,31 -10,40 15,50 10,66 -6,60 -31,60 v 61 l 15,70 v 36.000001 l -31,55 -26,35 5,25 -21,25 -46,29.999999 -5,45 -16,41 -41,30 -87,19 -61,-75 -21,-6 -41,45 -57,25 -36,30 -77,25 h -138 l -26,25 -31,45 -77,14 -46,-20 -72,5 -15,30 15,35 -5,61 20,35 -47,60 -56,55 -21,35 -10,25 -62,-5 -41,20 -5,60 -57,71 -41,9 -26,-5 -56,30 -103,65 -36,-5 -26,10 -26,50.00003 v 35 l 51,11 52,10 46,25 35,31 -20,35 4,100 -46,61 15,45 -21,45 -77,15 -71,5 -88,14 -36,40 5,71 -57,20 -10,20 20,30 v 25 l -20,50 -16,31 -31,45 -46,60 -6,10 -25,25 -52,10 -61,25 -31,-6 -31,-5 -36,10 -82,35 -26,-10 -45,-46 -36,-10 -47,30 -46,45 -16,75 -26,30 11,31 -16,50 -21,45 25,86 21,60 -21,45 5,36 25,70 41,136 -11,51 10,30 36,45 10,36 36,50 -1,50 -15,41 15,45 46,20 20,36 15,45 5,111 46,86 25,115 67,-9 4,60 -25,35 -27,106 16,50 -21,30 10,36 -16,40 -15,50 h -26 l -41,20 -36,25 -21,70 -46,45 -6,40 v 36 l -10,10 -26,5 -25,20 -26,40 -77,4 -73,106 -61,9 -16,-10 -20,-5 -10,15 v 25 l -11,10 -15,10 h -31 l -10,15 5,25 15,31 -5,20 -26,15 -5,15 41,40 20,36 -10,15 -47,15 -20,40 -52,9 -41,-5 -10,10 15,61 h 51 l 36,5 20,116 -31,65 10,36 -15,45 -6,35 10,30 93,31 51,50 25,111 -704,188 -1010,-10 -1646,-9 -1677.0003,-24 -1062,-26 -979,-15 -1103,-17 -292,-7 7,-427 -333,-2 6,-307 -159,-1 1,-171 -159,-6 6,-161 -164,-1 6,-156 -164,-6 1,-156 -205,-1 11,-312 -169,-1 17,-166 -175,-6 1,-161 -164,-1 11,-161 -169,-6 6,-161 -169,-6 1,-182 -190,-1 6,-161 -149,-1 -4,-161 -169,-1 11,-161 -159,-6 1,-161 -159,-6 1,-156 -159,-6 6,-161 -159,-6 v -146 l 1,-75 6,-267 1,-161.00003 6,-156 6,-171 18,-483 154,6 92,5 -4,-150.999999 12,-342.000001 1,-151 -4,-161 1,-161 6,-161 11,-180.99997 h 92 l 6,-156 1,-161 6,-161 6,-156 6,-161 52,-120 118,-30 -5,-90 6,-66 -160,150 -119,155 -175,166 -26,25 -118,115 -191,165 -170,165 -149,140 -47,50 1,-51 v -151 l 1,-186 6,-161 164,6 6,-161 1,-161 1,-131 12,-322 2,-322 5,-61 -164,-1 6,-100 16,-161 -164,-1 6,-181 1,-162 6,-161 1,-161 6,-161 6,-176 -143,-1 6,-146 1,-166 12,-322 1,-166 6,-161 6,-151 123,5 169,2 328,12 164,1 164,6 154,1 169,6 159,6 169,6 164,6 149,6 158,1 164,6 165,1 164,6 164,1 158,1 159,1 164,-4 159,6 169,1 165,6 h 138 l 123,-4 169,6 159,1 164,6 164,1 169,11 144,1 154,6 158,1 170,6 158,1 129,5 56,1 159,6 h 154 l 164,1 164,6 164,-4 154,1 179,1 164,1 328,-8 164,6 154,1 h 128 l 164,1 164,11 164,-4 159.0003,11 169,1 154,1 169,1 164,5 164,6 334,-3 979,-15 1912,30 384,2 841,4 z"
     id="Churchill" />
  <path
     style="stroke-linejoin:round;stroke-opacity:1"
     inkscape:connector-curvature="0"
     d="m 26915,29607 9,207 7,166 1,34 37,1043 52,1458 27,744 9,275 89,2860 9,292 v 107 l -52,13 -66,56 -5,6 -59,76 -20,48 -6,14 -4,12 -41,116 -53,110 -35,81 -53,75 -26,71 -21,85 -21,40 -58,31 -55,24 -40,27 -23,47 -4,52 34,32 28,33 14,25 -5,41 -21,35 -41,50 -41,107 -47,129 -21,91 -1,80 v 76 l -21,45 -31,41 -18,19 -4,20 -13,36 -1,10 -31,20 -31,5 -56,-5 -44,4 -51,-7 -44,6 -18,3 -54,28 -36,31 -46,14 -74,34 -105,41 -97,25 -86,10 -63,-12 -48,-28 -112,-56 -82,-71 -16,-68 -9,-70 -25,-48 -40,-14 -58,-12 -41,-18 -30,-37 -46,-25 -37,-18 -45,7 -36,5 -46,-20 -26,-36 5,-44 32,-36 6,-7 35,-33 16,-51 -10,-50 -26,-45 -30,-36 -35,-49 -26,-47 -26,-35 -25,-25 -37,-14 -10,-3 -48,-23 -38,-26 -23,-40 -7,-12 -42,-62 -41,-32 -35,-30 -51,-51 -21,-51 -56,-55 -51,-25 h -77 l -58,-17 -72,-17 -70,10 -58,7 -59,49 -52,48 -7,5 -73,56 -5,5 -60,53 -46,-25 -41,-20 -41,-59 -35,-42 -40,-15 -36,-3 -45,28 -80,54 -98,61 -61,19 -57,8 -36,-28 -15,-35 v -35 l 16,-31 31,-25 20,-25 6,-20 -24,-43 -32,-18 -31,-10 -41,5 -51,11 -26,24 -26,15 h -36 l -36,-20 -41,-30 -63,-17 -45,12 -66,14 -56,13 -72,9 -93,28 -77,55 -44,34 -7,7 -47,42 -40,32 -40,12 -33,-2 -36,-10 -15,-30 -12,-28 -29,-28 h -36 l -21,15 -37,19 -29,32 -52,19 -28,21 -39,34 -26,35 -20,20 -26,31 -6,7 -20,23 -42,27 -7,4 -43,24 -7,4 -40,21 -20,2 -43,-4 -34,-9 -41,20 -20,16 -27,9 -46,10 -43,12 -106,8 -72,22 -56,23 -57,40 -55,62 -33,38 -18,76 13,44 38,44 44,38 27,39 18,47 24,51 17,34 10,41 -22,31 -20,19 -5,30 5,48 15,23 38,14 32,13 27,34 31,25 8,29 -18,41 -29,37 -39,49 -49,36 -13,23 -10,19 -5,42 10,58 7,40 -2,46 -32,68 -1,25 -2,25 20,53 22,60 45,79 38,33 13,55 2,48 -4,73 -3,22 -1,18 27,34 43,23 43,38 68,49 30,62 11,39 -6,55 v 56 l 19,38 22,42 21,24 20,24 21,22 61,64 66,53 53,51 6,10 17,25 46,40 41,11 26,15 10,15 -5,23 -21,12 -24,7 -16,5 -27,8 -56,35 -52,20 -35,16 -9,10 -5,7 -8,12 -15,25 -26,15 -20,5 -11,2 -25,3 -30,15 -9,21 -3,25 17,33 14,27 10,15 14,23 27,38 15,25 5,30 -5,10 -14,26 -22,24 -11,21 1,28 -8,26 -14,41 -13,14 -13,9 -8,9 -16,24 -17,24 v 26 l 20,40 21,20 15,15 20,31 26,65 3,58 4,22 4,28 -2,43 3,58 7,43 19,35 17,31 10,24 -4,16 -9,35 -13,30 -1,36 9,20 12,35 10,45 -6,31 -5,30 -15,76 -26,60 -5,15 -14,39 -8,46 3,50 7,45 23,49 39,43 10,9 33,29 48,33 26,20 23,28 7,27 v 30 l -4,16 -4,18 -7,22 -9,30 -7,25 -10,41 -9,36 -2,9 -10,61 15,90 17,35 18,35 37,27 38,39 22,34 20,37 5,25 6,32 29,34 36,20 26,17 25,23 20,50 5,16 8,24 -2,65 -11,57 -4,40 -19,26 -18,16 -12,10 -34,28 -7,4 -48,24 -25,17 -4,25 v 36 l 26,21 36,24 20,36 20,59 10,37 -6,30 -4,24 11,61 3,14 11,52 20,52 15,29 5,20 -5,25 -21,35 -16,24 -12,13 -10,11 -24,27 -26,31 -24,26 -6,9 -21,30 -9,41 -2,10 -5,110 6,22 3,13 12,35 13,41 3,10 19,60 19,59 26,99 30,64 19,36 73,129 5,7 77,131 258,500 7,21 65,183 8,23 36,111 50,91 5,13 26,72 2,9 20,71 7,31 11,49 20,52 -9,64 -7,57 -9,80 2,14 v 66 l 17,75 4,22 7,43 40,79 29,95 1,9 15,85 4,26 4,49 7,52 7,53 -4,38 9,42 11,54 14,46 6,44 1,16 3,45 2,31 -1,64 20,46 30,28 11,22 12,23 13,43 -3,52 18,69 15,65 -2,31 -1,15 -3,25 -4,36 1,10 2,50 2,30 -27,80 -9,46 -3,18 7,35 4,17 5,48 -6,33 -26,64 -5,11 -41,41 -56,19 -72,14 -92,10 -77,4 -56,13 -16,4 -44,10 -51,30 -49,30 -52,65 -25,41 4,35 25,50 21,14 34,22 58,26 31,14 22,9 10,4 18,8 25,8 36,28 11,9 22,23 43,33 37,40 19,43 12,58 -21,70 -10,18 -21,38 -41,24 -37,21 -9,7 -54,41 -43,48 -17,29 -26,71 -5,69 4,60 3,35 -1,32 -1,26 -1,23 9,42 5,20 17,61 -245,-230 -149,-140 -17,-16 -169,-161 -163,-152 -88,-81 -194,-175 -96,-100 -195,-181 -510,-481 -996,-931 -136,-125 -295,-274 -426,-398 -155,-145 -270,-248 -165,-155 -171,-161 -435,-408 -466,-430 -30,-31 -100,-93 -1793,-1670 -110,-104 -871,-807 -130,-124 -512,-471 -340,-320 -180,-171 -30,1 -341,-319 -1889,-1764 -11,-1012 -4,-261 -2,-494 -4,-387 -15,-1073 -4,-181 -18,-1646 -5,-55 1,-206 -4,-222 -11,-946 -5,-116 1,-20 -7,-800 1,-176 -23,-1736 1401,-25 1,-121 3869,-67 h 35 l 149,-4 2704,-51 h 31 l 195,-5 98,1 159,-5 323,-4 159,-5 36,1 123,-5 616,-13 241,-10 5,106 821,-12 143,-10 785,-18 175,-4 410,-9 596,-13 1878,-60 954,-28 h 21 z"
     id="Clark" />
  <path
     style="stroke-linejoin:round;stroke-opacity:1"
     inkscape:connector-curvature="0"
     d="m -25393,4454.0001 468,8 61,1 385,13 297,2 236,6 646,4 -6,171 82,6 -11,151 1118,22 164,6 334,7 169,7 164,6 1826,66 -21,1042 -175,4 -11,85 h -107 l -462,-23 -6,297 -134,9 -18,498 -17,312 -164,-11 -2,322 159,6 -6,201 -6,207 h 61 l -5,80 92,-4 -1,262 -17,231 -51,-5 -2,337 v 60 l 164,1 v -50 h 87 l 154,1 93,1 -1,101 -3,528 v 20 l -7,337 164,1 -35,1225.9999 -1010,-950 -44,-40 -811,-758.9999 -21,-20 -210,-196 -176,-164 -93,-87 -66,-62 -521,-486 -214,-198 -213,-204 -122,-118 -77,-72 -298,-280 -22,-14 -274,-255 -32,-30 -177,-168 -467,-441 -107,-101 -36,-35 -264,-246 -422,-393 13,-746 z"
     id="Douglas" />
  <path
     style="stroke-linejoin:round;stroke-opacity:1"
     inkscape:connector-curvature="0"
     d="m 16807,-27356 439,-16 144,-6 327,-22 143,-8 153,-12 21,-2 149,-9 122,-7 26,-1 179,-2 169,-2 465,-3 h 856 l 142,3 164,1 149,1 h 10 l 492,-9 1131,-28 163,-5 333,-9 466,-19 h 29 l 298,-8 164,-4 553,-15 914,-24 64,-1 h 6 l 8,221 v 17 l 4,150 7,178 11,312 19,495 11,312 6,151 24,656 17,474 6,166 7,187 17,468 6,162 18,495 6,166 4,135 1,32 4,130 5,105 4,51 v 26 l 5,135 1,37 5,166 5,161 3,100 4,77 2,84 2,52 2,129 1,32 8,140 1,32 6,166 5,162 3,114 2,67 3,94 2,42 3,114 v 32 l 4,145 1,27 6,161 6,162 6,186 5,131 6,162 6,171 6,161 5,161 7,177 5,141 3,118 3,48 2,129 2,38 5,161 6,166 1,103 5,74 1,87 3,54 4,108 3,58 3,128 2,44 6,156 7,171 6,166 4,142 3,117 3,49 v 103 l 3,69 6,161 7,161 2,77 7,230 5,162 45,1396 v 31 l 3,181 6,298 5,215 6,289 19,821 2,69 5,248 12,543 32,1393 60,2360.0001 18,531 22,552 -1510,57 -2604,60 -877,8 -159,4 -343,5 -1005,17 -1948,25 -1733,20 -1271,16 -446,9 h -102 l -626,13 -641,-12 -789,7 -1194,21 -1394.9997,16 -423,-1699 -146,-695 -217,-953 -60,-176.0001 -31,-146 -40,-177 -35,-156 -40,-166 -36,-167 -40,-166 -90,-403 -86,-373 -45,-172 -106,-418 -29,-408 -5,-156 6,-167 1,-161 -5,-156 2,-489 1,-161 v -161 l -4,-161 1,-162 v -171 l -4,-166 1,-161 v -161 l -4,-157 -2,-811 -517,8 h -164 l -164,4 -164,-1 -108,5 h -56 l -323,9 -1296,10 -169,-1 -164,-1 -159,5 -169,-1 -164,5 -466,-2 -333,-2 -328,-1 -958,6 -143,-1 -164,5 -164,-1 -159,-1 -169,5 -159,-1 -164.00002,-1 -164,5 -169,-1 -71,-1 v -60 l 1,-161 -5,-156 1,-167 1,-161 v -156 l 1,-166 -3,-484 -4,-172 6,-166 1,-156 v -161 l -4,-172 1,-156 -3,-479 v -166 l 1,-156 1,-151 1,-177 -5,-161 1,-161 1,-157 1,-161 -2,-827 1,-161 1,-317 -4,-106 v -61 l 1,-1432 2,-237 1,-302 -5,-3399 2523.00002,5 h 707 l 50,-2 1546,3 349,-3 142,-1 22,-1 1631,-16 155,-2 117,1 946,4 304,1 70,-1 509,-6 110,-2 1187.9997,-14 926,-13 1336,-21 164,-2 130,-2 366,-5 138,-1 164,-2 287,-4 890,-9 74,-1 44,-4 759,-26 z"
     id="Elko" />
  <path
     style="stroke-linejoin:round;stroke-opacity:1"
     inkscape:connector-curvature="0"
     d="m -5435.9997,11937 3694,4233 214,253 15,70 -6,176 175,1 474.99998,516 -8,2701 -1,166 v 166 l -2,322 15,5615 v 30 l -1,222 1,905 1,790 -2,537 -670.99998,-630 -121,-109 -195,-186 -80,-72 -80,-73 -496,-465 -1378,-1288 -55,-52 -537,-497 -65,-62 -60,-57 -491,-460 -375,-347 -492,-460 -95,-88 -731,-683 -16,-1 -1020,-956 -619,-583 -291,-274 -214,-203 -250,-236 -657,-613 -902.0003,-843 -604,-565 -322,-302 -284,-262 h 72 l 272,37 333,1 552,-616 392,-410 212,-230 820.0003,-892 z"
     id="Esmeralda" />
  <path
     style="stroke-linejoin:round;stroke-opacity:1"
     inkscape:connector-curvature="0"
     d="m 4030.0003,-16114 164,-5 169,1 159,-5 164,1 169,1 1296,-10 323,-9 h 56 l 108,-5 164,1 164,-4 h 164 l 517,-8 2,811 4,157 v 161 l -1,161 4,166 v 171 l -1,162 4,161 v 161 l -1,161 -2,489 5,156 -1,161 -6,167 5,156 29,408 106,418 45,172 86,373 90,403 40,166 36,167 40,166 35,156 40,177 31,146 60,176.0001 217,953 146,695 423,1699 1394.9997,-16 61,131 10,51 5,50 -26,91 -21,40 -26,15 -5,106 30,50 5,55 -26,51 5,30 46,51 36,60 v 65 l -31,51 -26,45 25,91 25,35 5,45 -15,36 -31,150 4,81 -5,40 v 30 l 10,91 10,30 41,66 30,45 61,187 15,30 10,51 v 70 l -11,86 -10,35 10,55 20,56 51,65 51,106 -10,55 -21,41 -5,60 15,71 35,121 v 45 l -21,75 77,91 -6,76 -10,35 -11,40 16,30 -16,71 -31,45 -26,45 -25,35 -31,35 -26,56 15,116 45,105 -5,81 -21,65 -5,71 -1,60 v 96 l 20,50 -10,61 -26,55 -36,25 -26,10 -10,40 -26,30 -41,35 10,101 -6,121 4,226 57,56 10,60 4,81 v 65 l 5,71 5,111 -16,45 -31,50 20,35 v 76 l 30,125.99997 41,75 15,76 -26,50 51,91 10,60 -10,61 -104,161 -30,45 -16,25 -36,50 -11,70 10,46 21,60.000001 30,71 31,39.999999 -6,66 -46,80 -21,75 -46,35 -26,10 -67,101 v 20 l 5,20 -5,30 -62,76 -52,25 -31,55 11,50 30,56 -36,85 -41,30 -170,55 -107,-36 19,1410.00003 5,166 4,302 -2,1479 -1265.9997,6 -1565,24 -984,6 -1139,11 -903,1 -118,5 -9,-172 41,1 -21,-2179 h 51 l -8,-428 v -65 l -21,-2235.00003 -4,-191 h 31 l -4,-216.99997 v -131 l -8,-387 -9,-438 -8,-438 2,-438 v -45 l -4,-161 1,-162 v -161 l -4,-161 -2,-805 6,-156 -4,-151 4,-997 -87,5 1,-323 1,-166 12,-322 6,-156 v -146 l 29,-815 -8,-504 6,-161 1,-161 1,-146 v -156 l 1,-167 1,-161 v -156 l 6,-161 -15,-166 -4,-176 1,-162.0001 1,-166 v -156 l 1,-161 -4,-171 v -177 l -4,-136 v -30 l 6,-131 v -161 l 1,-30 5,-126 v -35 l -4,-141 1,-166 v -162 l -4,-166 1,-156 -10,-161 -4,-166 2,-585 5,-1002 v -161 l 1,-171 1,-167 6,-161 v -161 l 1,-161 1,-162 v -171 l 11,-171 1,-161 -4,-167 z"
     id="Eureka" />
  <path
     style="stroke-linejoin:round;stroke-opacity:1"
     inkscape:connector-curvature="0"
     d="m 408.00028,-27210 5,3399 -1,302 -2,237 -1,1432 v 61 l 4,106 -1,317 -1,161 2,827 -1,161 -1,157 -1,161 5,161 -1,177 -1,151 -1,156 v 166 l 3,479 -1,156 4,172 v 161 l -1,156 -6,166 4,172 3,484 -1,166 v 156 l -1,161 -1,167 5,156 -1,161 v 60 l 4,116 -6,162 5,161 -1,171 -1,151 -1,166 -6,167 5,171 -1,166 -1,146 5,151 -6,162 4,171 -7,483 -3,655 -6,161 10,147 4,176 4,161 5,141 -164,-6 -164,5 -153.999996,-1 -159.000004,-1 -164,5 -159,-1 -169,4 -153,4 -153.99998,5 -180,4 -164,-1 -158,-1 -26,46 -42,115 -57,166 -15,46 -42,110 -57,161 -57,166 -57,161 -52,161 -37,50 -26,101 3,-479 6,-156 -10,-166 1,-156 1,-172 v -156 l -4,-166 1,-166 v -141 l -947,-5 -328,-6 -144,-1 -179,-1 -154,-6 h -143 l -195,-1 -164,-1 -169,-1 -164,-1 -297,-1 1,-317 6,-177 1,-176 2,-292 -1,-816 v -151 l -138,-1 -164,-1 -164,4 -169,-6 h -159 l -148,-1 -800,-9 -163,-1 -175,-1 -164,-1 -169,-1 -164,-1 -158,-1 h -128 l -185,-1 -154,-1 -164,-1 -174,-1 -159,-6 h -143 l -164,-6 -154,-1 -158,-1 -169,-1 -200,-1 -128,-6 -175,4 -169.0003,-1 -158,-1 h -164 l -164,-1 -139,-1 -184,-1 -154,-6 -159,4 -169,-6 -164,-1 -138,-1 -174,-1 -159,-1 h -164 l -174,-1 -149,-1 h -20 l -1081,-17 -159,-1 -738,-24 -76,-1 13,-549 1,-136 7,-282 -4,-202 -451,-7 -953,-21 -1142,-7 -610,-14 -1229,-28 -169,-1 -3,-459 68,-2610 112,1 h 108 l 12,-357 13,-313 12,-297 25,-736 6,-272 -174,-1 8,-333 26,-918 20,-720 -31,-1 h -20 v -15 l 38,-1159 6,-157 14,-665 27,-959 41,-4 25,-1517 1488,30 805,14 1161,37 1087,28 h 34 l 1499,13 1349,12 328,3 327,2 308,2 650.0003,4 169,1 154,1 332,2 164,1 471,2 h 297 l 195,2 768,3 808,5 185,2 276,1 h 6 l 475,3 h 57 l 323,1 153,1 286,1 37,1 446,-1 233,1 217,1 h 116 l 742,7 944,2 461,-5 1665.99998,-13 h 4 z"
     id="Humboldt" />
  <path
     style="stroke-linejoin:round;stroke-opacity:1"
     inkscape:connector-curvature="0"
     d="m 4030.0003,-16114 v 100 l 4,167 -1,161 -11,171 v 171 l -1,162 -1,161 v 161 l -6,161 -1,167 -1,171 v 161 l -5,1002 -2,585 4,166 10,161 -1,156 4,166 v 162 l -1,166 4,141 v 35 l -5,126 -1,30 v 161 l -6,131 v 30 l 4,136 v 177 l 4,171 -1,161 v 156 l -1,166 -1,162.0001 4,176 15,166 -6,161 v 156 l -1,161 -1,167 v 156 l -1,146 -1,161 -6,161 8,504 -29,815 v 146 l -6,156 -12,322 -1,166 -1,323 87,-5 -4,997 4,151 -6,156 2,805 4,161 v 161 l -1,162 4,161 v 45 l -2,438 8,438 9,438 8,387 v 131 l 4,216.99997 h -31 l 4,191 21,2235.00003 v 65 l 8,428 h -51 l 21,2179 -41,-1 9,172 -1128,-5 -226,4 -1379,-6 -616.00002,7 -236,-1 h -153 l -462,-2 -984.99998,-5 -738,-3 -185,-1 -220,4 -252,49 -185,24 -795,142 -1042,217 -401,88 -518,98 -642,148 -25,-111 -51,-50 -93,-31 -10,-30 6,-35 15,-45 -10,-36 31,-65 -20,-116 -36,-5 h -51 l -15,-61 10,-10 41,5 52,-9 20,-40 47,-15 10,-15 -20,-36 -41,-40 5,-15 26,-15 5,-20 -15,-31 -5,-25 10,-15 h 31 l 15,-10 11,-10 v -25 l 10,-15 20,5 16,10 61,-9 73,-106 77,-4 26,-40 25,-20 26,-5 10,-10 v -36 l 6,-40 46,-45 21,-70 36,-25 41,-20 h 26 l 15,-50 16,-40 -10,-36 21,-30 -16,-50 27,-106 25,-35 -4,-60 -67,9 -25,-115 -46,-86 -5,-111 -15,-45 -20,-36 -46,-20 -15,-45 15,-41 1,-50 -36,-50 -10,-36 -36,-45 -10,-30 11,-51 -41,-136 -25,-70 -5,-36 21,-45 -21,-60 -25,-86 21,-45 16,-50 -11,-31 26,-30 16,-75 46,-45 47,-30 36,10 45,46 26,10 82,-35 36,-10 31,5 31,6 61,-25 52,-10 25,-25 6,-10 46,-60 31,-45 16,-31 20,-50 v -25 l -20,-30 10,-20 57,-20 -5,-71 36,-40 88,-14 71,-5 77,-15 21,-45 -15,-45 46,-61 -4,-100 20,-35 -35,-31 -46,-25 -52,-10 -51,-11 v -35 l 26,-50.00003 26,-10 36,5 103,-65 56,-30 26,5 41,-9 57,-71 5,-60 41,-20 62,5 10,-25 21,-35 56,-55 47,-60 -20,-35 5,-61 -15,-35 15,-30 72,-5 46,20 77,-14 31,-45 26,-25 h 138 l 77,-25 36,-30 57,-25 41,-45 21,6 61,75 87,-19 41,-30 16,-41 5,-45 46,-29.999999 21,-25 -5,-25 26,-35 31,-55 v -36.000001 l -15,-70 v -61 l 31,-60 6,-60 -10,-66 -15,-50 10,-40 -25,-31 88,-155 72,-126 -20,-95 -31,-6 -51,-10 -87,-90.99997 -5,-35 21,-20 36,-35 -5,-46 36,-40 21,-45 11,-80 25,-35 31,-51 -66,-106 -56,-30 -61,-146 11,-41 v -50 l -15,-40 26,-61 25,-25 16,-60 31,-80 -25,-66 -10,-5 h -47 l -20,-41 -46,-5 -20,-25 10,-65 -10,-41 -10,-35 5,-55 1,-41 10,-55 52,-75 15,-45 -10,-41 16,-90 -10,-31 -20,-25 31,-95 v -96 l -10,-65 31,-30 16,-56 21,-10 51,-25 15,-5 -5,-35 11,-40 26,-55 -21,-16 v -30 l 26,-25 21,-15 5,-50 -15,-20 5,-25 41,-41 -10,-30 16,-110 -15,-71 -15,-20 -5,-45 10,-46 6,-25 -26,-25 -15,-30 -5,-26 15,-40 -20,-20 -10,-45 10,-41 -20,-50 -41,-66 -10,-40 -10,-45 -35,-46 -21,-10 -25,-30 -41,-16 -41,-10 -36,-30 -25,-36 v -35 l -21,-35 -15,-56 -10,-45 -30,-5 -36,5 -15,-46 10,-35 -51,-91 -46,-40 -46,-56 -40,-56 5,-40 577,-1603 135,-387 462,-1312 302,-834 405,-1152.0001 62,-161 57,-165 52,-166 26,-101 37,-50 52,-161 57,-161 57,-166 57,-161 42,-110 15,-46 57,-166 42,-115 26,-46 158,1 164,1 180,-4 153.99998,-5 153,-4 169,-4 159,1 164,-5 159.000004,1 153.999996,1 164,-5 164,6 -5,-141 -4,-161 -4,-176 -10,-147 6,-161 3,-655 7,-483 -4,-171 6,-162 -5,-151 1,-146 1,-166 -5,-171 6,-167 1,-166 1,-151 1,-171 -5,-161 6,-162 -4,-116 71,1 169,1 164,-5 164.00002,1 159,1 169,-5 159,1 164,1 164,-5 143,1 958,-6 328,1 333,2 z"
     id="Lander" />
  <path
     style="stroke-linejoin:round;stroke-opacity:1"
     inkscape:connector-curvature="0"
     d="m 26255,9249.0001 27,829.9999 5,135 6,197 127,3889 18,548 8,251 42,1303 1,24 19,1386 1,23 35,1261 v 17 l 19,697 5,166 13,498 7,237 1,17 14,395 10,245 7,171 15,409 17,483 9,241 187,5192 1,22 66,1721 -526,19 h -21 l -954,28 -1878,60 -596,13 -410,9 -175,4 -785,18 -143,10 -821,12 -5,-106 -241,10 -616,13 -123,5 -36,-1 -159,5 -323,4 -159,5 -98,-1 -195,5 h -31 l -2704,51 -149,4 h -35 l -3869,67 -1,121 -1401,25 -84,-3885 -6,-966 -32,-2999 3,-1922 -40,-3638 462,-3 1601,-29 164,-5 1585,-20 513,-13 483,-13 169,-5 1601,-25 220,-4 1037,-22 -76,-3759 -14,-468 -38,-1781 -17,-951.9999 651,-18 283,-9 651,-13 534,-19 677,-13 349,-14 h 164 l 174,1 z"
     id="Lincoln" />
  <path
     style="stroke-linejoin:round;stroke-opacity:1"
     inkscape:connector-curvature="0"
     d="m -18961,-1050.9999 87,10 164,6 164,12 133,5 52,-4 123,-110 47,-50 149,-140 170,-165 191,-165 118,-115 26,-25 175,-166 119,-155 160,-150 -6,66 5,90 -118,30 -52,120 -6,161 -6,156 -6,161 -1,161 -6,156 h -92 l -11,180.99997 -6,161 -1,161 4,161 -1,151 -12,342.000001 4,150.999999 -92,-5 -154,-6 -18,483 -6,171 -6,156 -1,161.00003 -6,267 -1,75 v 146 l 159,6 -6,161 159,6 -1,156 159,6 -1,161 159,6 -11,161 169,1 4,161 149,1 -6,161 190,1 -1,182 169,6 -6,161 169,6 -11,161 164,1 -1,161 175,6 -17,166 169,1 -11,312 205,1 -1,156 164,6 -6,156 164,1 -6,161 159,6 -1,171 159,1 -6,307 333,2 -7,427 -1359,-33 h -67 l -879,1379 -21,1087 990,26 -16,966 -51,-1 -5,961 -35,1765.9999 v 176 l -36,971 -954,5 -164,-6 -1032,-21 -175,-164 -374,-347 -178,-167 -782,-732 35,-1225.9999 -164,-1 7,-337 v -20 l 3,-528 1,-101 -93,-1 -154,-1 h -87 v 50 l -164,-1 v -60 l 2,-337 51,5 17,-231 1,-262 -92,4 5,-80 h -61 l 6,-207 6,-201 -159,-6 2,-322 164,11 17,-312 18,-498 134,-9 6,-297 462,23 h 107 l 11,-85 175,-4 21,-1042 -1826,-66 -164,-6 -31,-51 -25,-35 5,-61 -5,-20 -10,-30 -25,-41 -5,-90 1,-197 -91,-101 -21,-55 1,-56 -21,-35 78,-115 26,-101 21,-40 21,-121 -25,-65 -754,-30 -133,-66 -97,-46 -36,-21 -41,-75 -187,-349 -31,-66 329,-93 20,-5 124,-34 87,-30 77,-35 93,-45 67,-34 154,-75 72,-45 92,-44 170,-105 494,-228 149,-75 113,-60 52,-85 5,-10 1233,-2192.00003 196,-346 94,-155 98,-171 83,-165.99997 z"
     id="Lyon" />
  <path
     style="stroke-linejoin:round;stroke-opacity:1"
     inkscape:connector-curvature="0"
     d="m -6829.9997,5248.0001 -2963,805 -10,931 1520,1744 2847,3208.9999 -3878,4226 -820.0003,892 -212,230 -392,410 -552,616 -333,-1 -272,-37 h -72 l -373,-350 -286,-266 -388,-361 -544,-508 -952,-890 -491,-460 -105,-99 -349,-328 -245,-231 -452,-421 -298,-278 -71,-66 -332,-309 -225,-212 -1046,-981 -104,-97 1032,21 164,6 954,-5 36,-971 v -176 l 35,-1765.9999 5,-961 51,1 16,-966 -990,-26 21,-1087 879,-1379 h 67 l 1359,33 292,7 1103,17 979,15 1062,26 1677.0003,24 1646,9 z"
     id="Mineral" />
  <path
     style="stroke-linejoin:round;stroke-opacity:1"
     inkscape:connector-curvature="0"
     d="m 10012,4249.0001 3402,2211 409,273 256,177 649,425 57,30 1064,698 1278,844 169,106 154,112 276,182 266,171 17,951.9999 38,1781 14,468 76,3759 -1037,22 -220,4 -1601,25 -169,5 -483,13 -513,13 -1585,20 -164,5 -1601,29 -462,3 40,3638 -3,1922 32,2999 6,966 84,3885 23,1736 -1,176 7,800 -1,20 5,116 11,946 4,222 -1,206 5,55 18,1646 4,181 15,1073 4,387 2,494 4,261 11,1012 -208,-194 -311,-289 -370.9997,-346 -514,-481 -122,-113 -377,-354 -226,-211 -376,-355 -26,-24 -527,-496 -474,-443 -109,-103 -722,-669 -1223,-1139 -126,-118 -308,-287 -137,-126 -185,-171 -549,-516 -24,-22 -162,-151 -267,-247 -748,-695 -474,-442 -27,-25 -316,-298 -95,-89 -290,-269 -362.00002,-335 -126,-117 -24,-22 -211,-196 -1420,-1323 v -12 l 2,-537 -1,-790 -1,-905 1,-222 v -30 l -15,-5615 2,-322 v -166 l 1,-166 8,-2701 -474.99998,-516 -175,-1 6,-176 -15,-70 -214,-253 -3694,-4233 -2847,-3208.9999 -1520,-1744 10,-931 2963,-805 704,-188 642,-148 518,-98 401,-88 1042,-217 795,-142 185,-24 252,-49 220,-4 185,1 738,3 984.99998,5 462,2 h 153 l 236,1 616.00002,-7 1379,6 226,-4 1128,5 118,-5 903,-1 1139,-11 984,-6 1565,-24 z"
     id="Nye" />
  <path
     style="stroke-linejoin:round;stroke-opacity:1"
     inkscape:connector-curvature="0"
     d="m -1983.9997,-10821 -52,166 -57,165 -62,161 -405,1152.0001 -302,834 -462,1312 -135,387 -577,1603 -641,17 -841,-4 -384,-2 -1912,-30 -979,15 -334,3 -164,-6 -164,-5 -169,-1 -154,-1 -169,-1 -159.0003,-11 -164,4 -164,-11 -164,-1 h -128 l -154,-1 -164,-6 -328,8 -164,-1 -179,-1 -154,-1 -164,4 -164,-6 -164,-1 h -154 l -159,-6 -56,-1 -129,-5 -158,-1 -170,-6 -158,-1 -154,-6 -144,-1 -169,-11 -164,-1 -164,-6 -159,-1 -169,-6 -123,4 h -138 l -165,-6 -169,-1 -159,-6 -164,4 -159,-1 -158,-1 -164,-1 -164,-6 -165,-1 -164,-6 -158,-1 -149,-6 -164,-6 -169,-6 -159,-6 -169,-6 -154,-1 -164,-6 -164,-1 -328,-12 -169,-2 -123,-5 -159,-6 -164,-1 -169,-7 -472,-8 41,-1777 6,-100 104,-3888.0001 210,7 10,-741 6,-80 12,-444 20,-639 48,-1169 12,-327 17,-317 6,-157 27,-1017 1229,28 610,14 1142,7 953,21 451,7 4,202 -7,282 -1,136 -13,549 76,1 738,24 159,1 1081,17 h 20 l 149,1 174,1 h 164 l 159,1 174,1 138,1 164,1 169,6 159,-4 154,6 184,1 139,1 164,1 h 164 l 158,1 169.0003,1 175,-4 128,6 200,1 169,1 158,1 154,1 164,6 h 143 l 159,6 174,1 164,1 154,1 185,1 h 128 l 158,1 164,1 169,1 164,1 175,1 163,1 800,9 148,1 h 159 l 169,6 164,-4 164,1 138,1 v 151 l 1,816 -2,292 -1,176 -6,177 -1,317 297,1 164,1 169,1 164,1 195,1 h 143 l 154,6 179,1 144,1 328,6 947,5 v 141 l -1,166 4,166 v 156 l -1,172 -1,156 10,166 -6,156 z"
     id="Pershing" />
  <path
     style="stroke-linejoin:round;stroke-opacity:1"
     inkscape:connector-curvature="0"
     d="m -22835,2991.0001 -10,-25 v -10 l -5,-55 170,1 v -161 l 6,-76 144,1 v -90 l 6,-156 6,-161 6,-162 169,7 1,-156 -82,-1 6,-161 -87,-6 6,-166 h -77 l 1,-151 87,5 1,-176 174,1 34,-468.00003 -359,-17 30,-839.999999 92,35 46,26 46,25 26,15.999999 31,25 15,10 10,10 15,31 h 16 l 31,15 46,10 30,6 57,-15 41,-25 36,-20 51,-10 52,-9 10,-5 62,-35 46,-54.999999 57,-60 36,-55.000001 46,-45 26,-20 47,-66 56,11 57,-5 51,-5 46,-19 10,-10 36,-15 31,-20 26,-35 -15,-71 h 21 l 30,-10 31,-4 h 26 l 15,-15 11,-20 10,-15 h 26 l 20,5 26,-5 15,15 h 10 l 16,6 h 25 l 26,-10 21,10 20,5 56,6 41,-5 21,-5 h 46 l 82,-14 h 36 l 31,10 10,5 26,-15 v -95 l 11,-25 10,-16 5,-15 26,-35 26,-15 5,-25 -5,-40 36,-10 15,20 26,26 36,25 61,5 31,-4 46,-5 41,-5 57,-20 20,-5 26,1 10,-5 46,15 62,31 20,5 h 21 l 41,-5 51,-5 46,1 h 10 l 16,5 h 15 l 36,-10 21,-15 15,-25 10,-10 6,-15 10,-15 31,-15 h 25 l 21,-5 36,11 h 46 l 46,-20 11,-5 71,-30 47,-9 31,-25 15,-20 36,-20 10,-5 21,-15 21,-20 15,-10 36,-15 46,-30 57,-39.99997 15,-15 36,-15 37,-75 61,81 -72,9 -83,165.99997 -98,171 -94,155 -196,346 -1233,2192.00003 -5,10 -52,85 -113,60 -149,75 -494,228 -170,105 -92,44 -72,45 -154,75 -67,34 -93,45 -77,35 -87,30 -124,34 -20,5 z"
     id="Storey" />
  <path
     style="stroke-linejoin:round;stroke-opacity:1;fill:none"
     inkscape:connector-curvature="0"
     d="m -18711,-27375 -25,1517 -41,4 -27,959 -14,665 -6,157 -38,1159 v 15 h 20 l 31,1 -20,720 -26,918 -8,333 174,1 -6,272 -25,736 -12,297 -13,313 -12,357 h -108 l -112,-1 -68,2610 3,459 169,1 -27,1017 -6,157 -17,317 -12,327 -48,1169 -20,639 -12,444 -6,80 -10,741 -210,-7 -104,3888.0001 -6,100 -41,1777 472,8 169,7 164,1 159,6 -6,151 -6,161 -1,166 -12,322 -1,166 -6,146 143,1 -6,176 -6,161 -1,161 -6,161 -1,162 -6,181 164,1 -16,161 -6,100 164,1 -5,61 -2,322 -12,322 -1,131 -1,161 -6,161 -164,-6 -6,161 -1,186 v 151 l -1,51 -123,110 -52,4 -133,-5 -164,-12 -164,-6 -87,-10 -61,-81 -37,75 -36,15 -15,15 -57,39.99997 -46,30 -36,15 -15,10 -21,20 -21,15 -10,5 -36,20 -15,20 -31,25 -47,9 -71,30 -11,5 -46,20 h -46 l -36,-11 -21,5 h -25 l -31,15 -10,15 -6,15 -10,10 -15,25 -21,15 -36,10 h -15 l -16,-5 h -10 l -46,-1 -51,5 -41,5 h -21 l -20,-5 -62,-31 -46,-15 -10,5 -26,-1 -20,5 -57,20 -41,5 -46,5 -31,4 -61,-5 -36,-25 -26,-26 -15,-20 -36,10 5,40 -5,25 -26,15 -26,35 -5,15 -10,16 -11,25 v 95 l -26,15 -10,-5 -31,-10 h -36 l -82,14 h -46 l -21,5 -41,5 -56,-6 -20,-5 -21,-10 -26,10 h -25 l -16,-6 h -10 l -15,-15 -26,5 -20,-5 h -26 l -10,15 -11,20 -15,15 h -26 l -31,4 -30,10 h -21 l 15,71 -26,35 -31,20 -36,15 -10,10 -46,19 -51,5 -57,5 -56,-11 -47,66 -26,20 -46,45 -36,55.000001 -57,60 -46,54.999999 -62,35 -10,5 -52,9 -51,10 -36,20 -41,25 -57,15 -30,-6 -46,-10 -31,-15 h -16 l -15,-31 -10,-10 -15,-10 -31,-25 -26,-15.999999 -46,-25 -46,-26 -92,-35 -30,839.999999 359,17 -34,468.00003 -174,-1 -1,176 -87,-5 -1,151 h 77 l -6,166 87,6 -6,161 82,1 -1,156 -169,-7 -6,162 -6,161 -6,156 v 90 l -144,-1 -6,76 v 161 l -170,-1 5,55 v 10 l 10,25 31,66 h -52 l -164,-6 -159,-12 -6,167 -164,-7 -1,156 -159,-1 -118,75 -138,4 h -77 l -6,75 -144,-6 -5,106 -77,-6 -1,76 -77,-1 -6,161 -307,-7 5,61 -241,-12 -680,-25 2,-117 18,-493 4,-275 8,-428 v -41 l 6,-145 10,-161 v -11 l 2,-151 8,-171 16,-322 8,-186 6,-156 7,-146 14,-332.00003 1,-15 8,-146 14,-488 9,-327 4,-151 19,-503 5,-120.99997 6,-171 6,-167 19,-502 5,-142 6,-161 7,-166 4,-150 1,-16 8,-135 1,-16 8,-140 1,-26 5,-135 1,-32 9,-139 v -22 l 8,-135 52,-1342 5,-118 6,-149 10,-173 6,-134 35,-714 7,-129 v -32 l 6,-109 5,-168 10,-241 2,-44 11,-344 16,-502 11,-322 6,-161 6,-156 1,-32 6,-135 23,-538 4,-147 19,-690 20,-513.0001 2,-55 6,-222 19,-735 3,-116 5,-222 13,-392 2,-86 5,-222 20,-796 20,-725 11,-463 3,-96 10,-342 3,-136 27,-977 32,-978 45,-1321 19,-492 6,-153 15,-452 23,-468 32,-967 108,-3199 13,-379 7,-252 26,-1019 34,-1068 2,-72 11,-251 5,-223 13,-500 1151,29 h 7 l 286,11 106,5 164,8 27,1 225,12 1072,42 642,29 411,19 h 11 l 20,-4 54,4 13,1 1141,21 z"
     id="Washoe" />
  <path
     style="stroke-linejoin:round;stroke-opacity:1"
     inkscape:connector-curvature="0"
     d="m 25726,-6745.9999 58,1516 30,851 53,1430 12,327 41,1116 34,1147.99997 24,815 5,161 15,536.00003 7,280 5,166 8,284 16,526 4,146 20,695 v 13 l 24,1080 8,357 17,737 4,166 v 74 l 1,12 22,475 15,327 30,629 7,150 10,206 v 15 l 16,479 10,307 2,70 17,498 14,403 -4780,144 -174,-1 h -164 l -349,14 -677,13 -534,19 -651,13 -283,9 -651,18 -266,-171 -276,-182 -154,-112 -169,-106 -1278,-844 -1064,-698 -57,-30 -649,-425 -256,-177 -409,-273 -3402,-2211 2,-1479 -4,-302 -5,-166 -19,-1410.00003 107,36 170,-55 41,-30 36,-85 -30,-56 -11,-50 31,-55 52,-25 62,-76 5,-30 -5,-20 v -20 l 67,-101 26,-10 46,-35 21,-75 46,-80 6,-66 -31,-39.999999 -30,-71 -21,-60.000001 -10,-46 11,-70 36,-50 16,-25 30,-45 104,-161 10,-61 -10,-60 -51,-91 26,-50 -15,-76 -41,-75 -30,-125.99997 v -76 l -20,-35 31,-50 16,-45 -5,-111 -5,-71 v -65 l -4,-81 -10,-60 -57,-56 -4,-226 6,-121 -10,-101 41,-35 26,-30 10,-40 26,-10 36,-25 26,-55 10,-61 -20,-50 v -96 l 1,-60 5,-71 21,-65 5,-81 -45,-105 -15,-116 26,-56 31,-35 25,-35 26,-45 31,-45 16,-71 -16,-30 11,-40 10,-35 6,-76 -77,-91 21,-75 v -45 l -35,-121 -15,-71 5,-60 21,-41 10,-55 -51,-106 -51,-65 -20,-56 -10,-55 10,-35 11,-86 v -70 l -10,-51 -15,-30 -61,-187 -30,-45 -41,-66 -10,-30 -10,-91 v -30 l 5,-40 -4,-81 31,-150 15,-36 -5,-45 -25,-35 -25,-91 26,-45 31,-51 v -65 l -36,-60 -46,-51 -5,-30 26,-51 -5,-55 -30,-50 5,-106 26,-15 21,-40 26,-91 -5,-50 -10,-51 -61,-131 1194,-21 789,-7 641,12 626,-13 h 102 l 446,-9 1271,-16 1733,-20 1948,-25 1005,-17 343,-5 159,-4 877,-8 2604,-60 z"
     id="White_Pine" />
</svg>
